<svg width="104" height="29" viewBox="0 0 104 29" fill="none" xmlns="http://www.w3.org/2000/svg">
<path d="M7.31941 3.67179L12.776 6.9463V0.398438L9.45857 2.3891L7.31941 3.67179Z" fill="url(#paint0_linear_111_2393)"/>
<path d="M18.2326 3.67179L12.776 6.9463V0.398438L16.0934 2.3891L18.2326 3.67179Z" fill="url(#paint1_linear_111_2393)"/>
<path fill-rule="evenodd" clip-rule="evenodd" d="M19.7699 4.5923C19.6651 4.52945 19.5343 4.52945 19.4296 4.5923L13.803 7.96824C13.5153 8.14083 13.6377 8.58261 13.9731 8.58261H25.2263C25.5618 8.58261 25.6841 8.14083 25.3965 7.96824L19.7699 4.5923ZM6.12932 4.59254C6.02457 4.52969 5.89372 4.52969 5.78897 4.59254L0.162378 7.96847C-0.125278 8.14106 -0.0029128 8.58285 0.332547 8.58285H11.5857C11.9212 8.58285 12.0436 8.14106 11.7559 7.96847L6.12932 4.59254Z" fill="url(#paint2_linear_111_2393)"/>
<path d="M25.2265 9.26465H0.330694C0.148023 9.26465 -6.10352e-05 9.41273 -6.10352e-05 9.5954V10.983C-6.10352e-05 11.1656 0.148023 11.3137 0.330694 11.3137H25.2265C25.4092 11.3137 25.5572 11.1656 25.5572 10.983V9.5954C25.5572 9.41273 25.4092 9.26465 25.2265 9.26465Z" fill="url(#paint3_linear_111_2393)"/>
<path fill-rule="evenodd" clip-rule="evenodd" d="M18.2073 12.6676C18.2073 12.2967 18.508 11.9961 18.8788 11.9961H23.0197C23.3905 11.9961 23.6912 12.2967 23.6912 12.6676V25.1123C23.6912 25.3461 23.5696 25.5631 23.3701 25.6851L19.2292 28.2182C18.7818 28.4919 18.2073 28.1699 18.2073 27.6454V12.6676ZM1.86615 12.6679C1.86615 12.297 2.1668 11.9964 2.53766 11.9964H6.67851C7.04938 11.9964 7.35002 12.297 7.35002 12.6679V25.1926C7.35002 25.4264 7.22839 25.6434 7.02893 25.7654L2.88808 28.2985C2.44062 28.5722 1.86615 28.2502 1.86615 27.7257V12.6679ZM10.5114 11.9961C10.1405 11.9961 9.83986 12.2967 9.83986 12.6676V22.7164C9.83986 22.9528 9.96409 23.1717 10.167 23.2929L14.3078 25.7668C14.7554 26.0343 15.3237 25.7118 15.3237 25.1904V12.6676C15.3237 12.2967 15.0231 11.9961 14.6522 11.9961H10.5114Z" fill="url(#paint4_linear_111_2393)"/>
<path d="M100.019 11.9462H100.807L103.168 13.3239V21.7865H100.019V11.9462ZM99.8227 8.50216V8.73832C99.8227 9.14505 99.9408 9.49274 100.177 9.78139C100.413 10.07 100.859 10.2144 101.515 10.2144H101.673C102.329 10.2144 102.775 10.07 103.011 9.78139C103.247 9.49274 103.365 9.14505 103.365 8.73832V8.50216C103.365 8.09543 103.247 7.74774 103.011 7.45909C102.775 7.17045 102.329 7.02612 101.673 7.02612H101.515C100.859 7.02612 100.413 7.17045 100.177 7.45909C99.9408 7.74774 99.8227 8.09543 99.8227 8.50216Z" fill="white"/>
<path d="M97.5867 11.7497H88.5139V13.7177H95.6186V16.8666H88.5139V21.7867H84.9714V8.60083H97.5867V11.7497Z" fill="white"/>
<path d="M73.7226 22.8687C73.4602 23.446 73.1978 23.9708 72.9354 24.4431C72.673 24.9155 72.3712 25.3156 72.0301 25.6436C71.6889 25.9848 71.2822 26.2472 70.8099 26.4309C70.3507 26.6145 69.793 26.7064 69.137 26.7064C68.8746 26.7064 68.5925 26.6867 68.2908 26.6473C67.989 26.6211 67.72 26.5752 67.4839 26.5096V23.715C67.7069 23.7674 67.9628 23.8002 68.2514 23.8134C68.5532 23.8396 68.8025 23.8527 68.9993 23.8527C69.3273 23.8527 69.5897 23.8199 69.7865 23.7543C69.9964 23.7018 70.167 23.6166 70.2982 23.4985C70.4425 23.3804 70.5606 23.2361 70.6524 23.0655C70.7574 22.8949 70.8624 22.6981 70.9673 22.4751L71.1051 22.1405L66.4014 12.7333V11.946H69.3535L72.4827 18.7358L75.238 11.946H78.1901V12.7333L73.7226 22.8687Z" fill="white"/>
<path d="M58.7888 22.1797C57.6867 22.1797 56.7748 22.0485 56.0532 21.7861C55.3316 21.5368 54.7543 21.1891 54.3213 20.743C53.8883 20.2969 53.5866 19.7787 53.416 19.1883C53.2454 18.5847 53.1602 17.9418 53.1602 17.2596V16.4724C53.1602 15.7901 53.2454 15.1538 53.416 14.5634C53.5866 13.9598 53.8883 13.435 54.3213 12.9889C54.7543 12.5428 55.3316 12.1951 56.0532 11.9459C56.7748 11.6834 57.6867 11.5522 58.7888 11.5522H59.3399C60.4551 11.5522 61.367 11.6375 62.0755 11.8081C62.784 11.9655 63.335 12.1886 63.7286 12.4772C64.1222 12.7659 64.3912 13.1004 64.5355 13.4809C64.6799 13.8614 64.752 14.2681 64.752 14.7011V14.8979C64.752 15.2915 64.6995 15.6655 64.5946 16.0197C64.5027 16.374 64.2731 16.6888 63.9058 16.9644C63.5384 17.2399 62.9939 17.4564 62.2723 17.6138C61.5638 17.7713 60.5929 17.85 59.3595 17.85C58.7691 17.85 58.2246 17.8238 57.7261 17.7713C57.2275 17.7188 56.7551 17.6269 56.3091 17.4957C56.3222 17.7713 56.3681 18.0271 56.4468 18.2633C56.5255 18.4863 56.6699 18.6766 56.8798 18.834C57.1028 18.9915 57.4112 19.1161 57.8048 19.2079C58.1984 19.2867 58.7232 19.326 59.3792 19.326C59.6941 19.326 60.0418 19.3129 60.4223 19.2867C60.8159 19.2604 61.2161 19.2276 61.6228 19.1883C62.0427 19.1358 62.4494 19.0767 62.843 19.0111C63.2497 18.9324 63.6237 18.8406 63.9648 18.7356V21.6877C63.6237 21.7664 63.2497 21.832 62.843 21.8845C62.4494 21.9501 62.0361 22.0026 61.6031 22.0419C61.1833 22.0944 60.7634 22.1272 60.3436 22.1403C59.9237 22.1666 59.5301 22.1797 59.1627 22.1797H58.7888ZM59.3595 14.0123C58.8347 14.0123 58.3952 14.0451 58.0409 14.1107C57.6867 14.1632 57.398 14.2485 57.175 14.3666C56.952 14.4846 56.7814 14.629 56.6633 14.7995C56.5452 14.9701 56.4599 15.1669 56.4075 15.3899C56.7879 15.4949 57.1947 15.5736 57.6277 15.6261C58.0737 15.6655 58.5854 15.6851 59.1627 15.6851C59.74 15.6851 60.1927 15.6655 60.5207 15.6261C60.8487 15.5736 61.0914 15.5146 61.2489 15.449C61.4063 15.3703 61.5047 15.2915 61.5441 15.2128C61.5834 15.121 61.6031 15.0291 61.6031 14.9373C61.6031 14.8454 61.5834 14.747 61.5441 14.6421C61.5178 14.524 61.426 14.419 61.2686 14.3272C61.1242 14.2353 60.9012 14.1632 60.5994 14.1107C60.2976 14.0451 59.8844 14.0123 59.3595 14.0123Z" fill="white"/>
<path d="M41.5526 19.0905L37.8526 13.9146V21.7867H34.3101V8.60083H37.8526L42.4579 15.3512L47.0631 8.60083H50.6056V21.7867H47.0631V13.9146L43.3632 19.0905H41.5526Z" fill="white"/>
<defs>
<linearGradient id="paint0_linear_111_2393" x1="6.53595" y1="-0.0976129" x2="14.2297" y2="0.99526" gradientUnits="userSpaceOnUse">
<stop stop-color="#0047FF"/>
<stop offset="1" stop-color="#00BCD4"/>
</linearGradient>
<linearGradient id="paint1_linear_111_2393" x1="19.0161" y1="-0.0976129" x2="11.3223" y2="0.99526" gradientUnits="userSpaceOnUse">
<stop stop-color="#0047FF"/>
<stop offset="1" stop-color="#00BCD4"/>
</linearGradient>
<linearGradient id="paint2_linear_111_2393" x1="29.2273" y1="4.23929" x2="12.2405" y2="22.5672" gradientUnits="userSpaceOnUse">
<stop stop-color="#0047FF"/>
<stop offset="1" stop-color="#00BCD4"/>
</linearGradient>
<linearGradient id="paint3_linear_111_2393" x1="29.2268" y1="9.10942" x2="22.5669" y2="23.2685" gradientUnits="userSpaceOnUse">
<stop stop-color="#0047FF"/>
<stop offset="1" stop-color="#00BCD4"/>
</linearGradient>
<linearGradient id="paint4_linear_111_2393" x1="26.8249" y1="10.7535" x2="-3.03308" y2="17.5257" gradientUnits="userSpaceOnUse">
<stop stop-color="#0047FF"/>
<stop offset="1" stop-color="#00BCD4"/>
</linearGradient>
</defs>
</svg>
